<svg xmlns="http://www.w3.org/2000/svg" viewBox="0 0 824 582" width="824" height="582" font-family="ui-monospace, Menlo, Consolas, monospace" font-size="14">
<rect width="824" height="582" rx="8" fill="#0b0d10"/>
<g transform="translate(16 14)">
<circle cx="0" cy="6" r="6" fill="#ff6058"/>
<circle cx="18" cy="6" r="6" fill="#ffbd2e"/>
<circle cx="36" cy="6" r="6" fill="#27c93f"/>
<text x="300.00000000000006" y="10" fill="#8895a6" font-size="12">jesses stats session.jes</text>
</g>
<text x="16.0" y="62" fill="#dde4ee" xml:space="preserve">session </text>
<text x="86.4" y="62" fill="#dde4ee" opacity="0.55" xml:space="preserve">777c0ea1d813310c6d0406cf2fc54512</text>
<text x="16.0" y="106" fill="#dde4ee" xml:space="preserve">  decisions   </text>
<text x="139.2" y="106" fill="#5fd37a" xml:space="preserve">██████████████</text>
<text x="262.4" y="106" fill="#e55c5c" font-weight="bold" xml:space="preserve">██████████</text>
<text x="350.4" y="106" fill="#dde4ee" opacity="0.55" xml:space="preserve">████</text>
<text x="385.6" y="106" fill="#dde4ee" xml:space="preserve"> </text>
<text x="394.4" y="106" fill="#dde4ee" opacity="0.55" xml:space="preserve">8 total</text>
<text x="16.0" y="128" fill="#dde4ee" xml:space="preserve">              </text>
<text x="139.2" y="128" fill="#5fd37a" xml:space="preserve">allow 4</text>
<text x="200.8" y="128" fill="#dde4ee" xml:space="preserve"> </text>
<text x="209.6" y="128" fill="#e8b14a" xml:space="preserve">warn 0</text>
<text x="262.4" y="128" fill="#dde4ee" xml:space="preserve"> </text>
<text x="271.2" y="128" fill="#e55c5c" font-weight="bold" xml:space="preserve">deny 3</text>
<text x="324.0" y="128" fill="#dde4ee" xml:space="preserve"> </text>
<text x="332.8" y="128" fill="#dde4ee" opacity="0.55" xml:space="preserve">commit 1</text>
<text x="16.0" y="172" fill="#dde4ee" xml:space="preserve">  tools</text>
<text x="16.0" y="194" fill="#dde4ee" xml:space="preserve">    bash         </text>
<text x="165.6" y="194" fill="#6ecfd9" xml:space="preserve">████████████</text>
<text x="271.2" y="194" fill="#dde4ee" xml:space="preserve"> </text>
<text x="280.0" y="194" fill="#dde4ee" opacity="0.55" xml:space="preserve">5</text>
<text x="16.0" y="216" fill="#dde4ee" xml:space="preserve">    jesses.precommit </text>
<text x="200.8" y="216" fill="#6ecfd9" xml:space="preserve">██░░░░░░░░░░</text>
<text x="306.4" y="216" fill="#dde4ee" xml:space="preserve"> </text>
<text x="315.2" y="216" fill="#dde4ee" opacity="0.55" xml:space="preserve">1</text>
<text x="16.0" y="238" fill="#dde4ee" xml:space="preserve">    webfetch     </text>
<text x="165.6" y="238" fill="#6ecfd9" xml:space="preserve">██░░░░░░░░░░</text>
<text x="271.2" y="238" fill="#dde4ee" xml:space="preserve"> </text>
<text x="280.0" y="238" fill="#dde4ee" opacity="0.55" xml:space="preserve">1</text>
<text x="16.0" y="260" fill="#dde4ee" xml:space="preserve">    write        </text>
<text x="165.6" y="260" fill="#6ecfd9" xml:space="preserve">██░░░░░░░░░░</text>
<text x="271.2" y="260" fill="#dde4ee" xml:space="preserve"> </text>
<text x="280.0" y="260" fill="#dde4ee" opacity="0.55" xml:space="preserve">1</text>
<text x="16.0" y="304" fill="#dde4ee" xml:space="preserve">  top hosts</text>
<text x="16.0" y="326" fill="#dde4ee" xml:space="preserve">    </text>
<text x="51.2" y="326" fill="#e55c5c" font-weight="bold" xml:space="preserve">api.target.com</text>
<text x="174.4" y="326" fill="#dde4ee" xml:space="preserve">              </text>
<text x="297.6" y="326" fill="#6ecfd9" xml:space="preserve">████████</text>
<text x="368.0" y="326" fill="#dde4ee" xml:space="preserve"> </text>
<text x="376.8" y="326" fill="#dde4ee" opacity="0.55" xml:space="preserve">2</text>
<text x="385.6" y="326" fill="#e55c5c" font-weight="bold" xml:space="preserve"> ← deny</text>
<text x="16.0" y="348" fill="#dde4ee" xml:space="preserve">    </text>
<text x="51.2" y="348" fill="#e55c5c" font-weight="bold" xml:space="preserve">admin.target.com</text>
<text x="192.0" y="348" fill="#dde4ee" xml:space="preserve">            </text>
<text x="297.6" y="348" fill="#6ecfd9" xml:space="preserve">████░░░░</text>
<text x="368.0" y="348" fill="#dde4ee" xml:space="preserve"> </text>
<text x="376.8" y="348" fill="#dde4ee" opacity="0.55" xml:space="preserve">1</text>
<text x="385.6" y="348" fill="#e55c5c" font-weight="bold" xml:space="preserve"> ← deny</text>
<text x="16.0" y="370" fill="#dde4ee" xml:space="preserve">    </text>
<text x="51.2" y="370" fill="#e55c5c" font-weight="bold" xml:space="preserve">attacker-c2.example</text>
<text x="218.4" y="370" fill="#dde4ee" xml:space="preserve">         </text>
<text x="297.6" y="370" fill="#6ecfd9" xml:space="preserve">████░░░░</text>
<text x="368.0" y="370" fill="#dde4ee" xml:space="preserve"> </text>
<text x="376.8" y="370" fill="#dde4ee" opacity="0.55" xml:space="preserve">1</text>
<text x="385.6" y="370" fill="#e55c5c" font-weight="bold" xml:space="preserve"> ← deny</text>
<text x="16.0" y="392" fill="#dde4ee" xml:space="preserve">    developer.target.com                     </text>
<text x="412.0" y="392" fill="#6ecfd9" xml:space="preserve">████░░░░</text>
<text x="482.4" y="392" fill="#dde4ee" xml:space="preserve"> </text>
<text x="491.2" y="392" fill="#dde4ee" opacity="0.55" xml:space="preserve">1</text>
<text x="16.0" y="414" fill="#dde4ee" xml:space="preserve">    docs.target.com                          </text>
<text x="412.0" y="414" fill="#6ecfd9" xml:space="preserve">████░░░░</text>
<text x="482.4" y="414" fill="#dde4ee" xml:space="preserve"> </text>
<text x="491.2" y="414" fill="#dde4ee" opacity="0.55" xml:space="preserve">1</text>
<text x="16.0" y="436" fill="#dde4ee" xml:space="preserve">    </text>
<text x="51.2" y="436" fill="#e55c5c" font-weight="bold" xml:space="preserve">exfil.attacker.example</text>
<text x="244.8" y="436" fill="#dde4ee" xml:space="preserve">      </text>
<text x="297.6" y="436" fill="#6ecfd9" xml:space="preserve">████░░░░</text>
<text x="368.0" y="436" fill="#dde4ee" xml:space="preserve"> </text>
<text x="376.8" y="436" fill="#dde4ee" opacity="0.55" xml:space="preserve">1</text>
<text x="385.6" y="436" fill="#e55c5c" font-weight="bold" xml:space="preserve"> ← deny</text>
<text x="16.0" y="480" fill="#dde4ee" xml:space="preserve">  unique hosts 6  unique paths 1</text>
<text x="16.0" y="524" fill="#dde4ee" xml:space="preserve">  verdict     </text>
<text x="139.2" y="524" fill="#e55c5c" font-weight="bold" xml:space="preserve">✗ INVALID</text>
<text x="218.4" y="524" fill="#dde4ee" xml:space="preserve">  </text>
<text x="236.0" y="524" fill="#dde4ee" opacity="0.55" xml:space="preserve">(3 policy breaches)</text>
<text x="16.0" y="546" fill="#dde4ee" xml:space="preserve">              </text>
<text x="139.2" y="546" fill="#dde4ee" opacity="0.55" xml:space="preserve">run `jesses verify` for the gate report</text>
</svg>